<svg id="Layer_1" data-name="Layer 1" xmlns="http://www.w3.org/2000/svg" viewBox="0 0 282.69 207"><defs><style>.cls-1{fill:none;stroke:#fff;stroke-miterlimit:10;stroke-width:4px;}</style></defs><title>paketiArtboard 1</title><rect class="cls-1" x="104.88" y="2" width="72.93" height="203"/><rect class="cls-1" x="2" y="2" width="72.93" height="203"/><rect class="cls-1" x="207.77" y="2" width="72.93" height="203"/><line class="cls-1" x1="10.59" y1="61" x2="66.15" y2="61"/><line class="cls-1" x1="10.59" y1="89.75" x2="66.15" y2="89.75"/><line class="cls-1" x1="10.59" y1="118.5" x2="66.15" y2="118.5"/><line class="cls-1" x1="10.59" y1="147.25" x2="66.15" y2="147.25"/><line class="cls-1" x1="10.59" y1="176" x2="66.15" y2="176"/><line class="cls-1" x1="113.9" y1="61" x2="169.47" y2="61"/><line class="cls-1" x1="113.9" y1="89.75" x2="169.47" y2="89.75"/><line class="cls-1" x1="113.9" y1="118.5" x2="169.47" y2="118.5"/><line class="cls-1" x1="113.9" y1="147.25" x2="169.47" y2="147.25"/><line class="cls-1" x1="113.9" y1="176" x2="169.47" y2="176"/><line class="cls-1" x1="216.35" y1="61" x2="271.92" y2="61"/><line class="cls-1" x1="216.35" y1="89.75" x2="271.92" y2="89.75"/><line class="cls-1" x1="216.35" y1="118.5" x2="271.92" y2="118.5"/><line class="cls-1" x1="216.35" y1="147.25" x2="271.92" y2="147.25"/><line class="cls-1" x1="216.35" y1="176" x2="271.92" y2="176"/></svg>